P2
5 10
255
116 166 138 80 132 
27 222 19 155 224 
66 234 39 193 235 
187 70 223 4 1 
78 47 43 76 71 
251 242 191 107 96 
95 144 173 206 108 
139 47 139 135 143 
202 49 19 15 138 
43 230 146 48 60 